<svg xmlns="http://www.w3.org/2000/svg" viewBox="0 0 64 64" fill="none">
  <rect width="64" height="64" rx="14" fill="#ff385c" />
  <!-- Listy -->
  <path d="M30 12c-1.5 3-4 5-7 5.5 2 2 5 2.5 7 1.5 2 1 5 .5 7-1.5-3-.5-5.5-2.5-7-5.5z" fill="#141414" />
  <!-- Jahoda outline -->
  <path d="M32 20c-6 0-11 4.5-11 11 0 6.5 5 13 11 17 6-4 11-10.5 11-17 0-6.5-5-11-11-11z" stroke="#ffffff" stroke-width="3.5" fill="none" stroke-linejoin="round" />
  <!-- Semínka -->
  <ellipse cx="28" cy="30" rx="0.9" ry="1.6" fill="#ffffff" />
  <ellipse cx="34" cy="30" rx="0.9" ry="1.6" fill="#ffffff" />
  <ellipse cx="30.5" cy="34.5" rx="0.9" ry="1.6" fill="#ffffff" />
  <ellipse cx="36" cy="35" rx="0.9" ry="1.6" fill="#ffffff" />
  <ellipse cx="32" cy="39.5" rx="0.9" ry="1.6" fill="#ffffff" />
  <!-- Horní šipka (pravá) -->
  <path d="M43 26c2 1 3.5 3 4 5.5" stroke="#ffffff" stroke-width="3.5" stroke-linecap="round" fill="none" />
  <path d="M47 27.5l.5 4.5 4-2" stroke="#ffffff" stroke-width="3.5" stroke-linecap="round" stroke-linejoin="round" fill="none" />
  <!-- Dolní šipka (levá) -->
  <path d="M21 42c-2-1-3.5-3-4-5.5" stroke="#ffffff" stroke-width="3.5" stroke-linecap="round" fill="none" />
  <path d="M17 40.5l-.5-4.5-4 2" stroke="#ffffff" stroke-width="3.5" stroke-linecap="round" stroke-linejoin="round" fill="none" />
</svg>
